<svg width="32" height="32" viewBox="0 0 32 32" fill="none" xmlns="http://www.w3.org/2000/svg">
<path d="M24.2663 21.4155C23.5906 26.1134 19.5276 29.7353 14.6332 29.7353C9.73872 29.7353 5.67577 26.1134 5 21.4155H8.96284C9.58577 23.9614 11.8912 25.8527 14.6332 25.8527C17.3752 25.8527 19.6806 23.9614 20.3035 21.4155H24.2663Z" fill="#6D28D9"/>
<path d="M23.0705 2L22.6701 4.82871C21.1851 3.35057 19.2718 2.39103 17.1583 2.09706C14.5831 1.73654 12.0219 2.39657 9.94729 3.95791C7.86993 5.51925 6.52952 7.79053 6.16522 10.3586C5.41715 15.6582 9.13526 20.5752 14.4496 21.3212C14.9085 21.385 15.3618 21.4155 15.8095 21.4155C20.5816 21.4155 24.7586 17.9018 25.4427 13.0597L25.4594 12.9321L27 2H23.0705ZM14.9891 17.4775C11.7994 17.031 9.57187 14.0803 10.0196 10.8993C10.4284 7.99298 12.9368 5.88532 15.7984 5.88532C16.0681 5.88532 16.3407 5.90473 16.616 5.94355C18.1594 6.15987 19.5276 6.96411 20.4676 8.20652C21.4075 9.44893 21.8024 10.9825 21.5855 12.5217C21.1378 15.7026 18.1789 17.9267 14.9891 17.4775Z" fill="#6D28D9"/>
<ellipse cx="13.2486" cy="11.2451" rx="1.15563" ry="1.15563" fill="#6D28D9"/>
<ellipse cx="18.4489" cy="11.2451" rx="1.15563" ry="0.577817" fill="#6D28D9"/>
</svg>
