<svg width="180" height="48" viewBox="0 0 180 48" fill="none" xmlns="http://www.w3.org/2000/svg">
<g clip-path="url(#clip0_2130_11409)">
<path d="M16.8449 33.6014C7.55615 33.6014 0 26.0662 0 16.8031C0 7.54005 7.55615 0.00479889 16.8449 0.00479889C26.1337 0.00479889 33.6898 7.54005 33.6898 16.8031C33.6898 26.0662 26.1337 33.6014 16.8449 33.6014ZM16.8449 6.72413C11.2717 6.72413 6.73797 11.2453 6.73797 16.8031C6.73797 22.361 11.2717 26.8821 16.8449 26.8821C22.4182 26.8821 26.9519 22.361 26.9519 16.8031C26.9519 11.2453 22.4182 6.72413 16.8449 6.72413Z" fill="#7C3AED"/>
<path d="M68.0679 33.6014C66.8984 41.7318 59.8668 48 51.3963 48C42.9257 48 35.8941 41.7318 34.7246 33.6014H41.5829C42.661 38.0074 46.6508 41.2807 51.3963 41.2807C56.1417 41.2807 60.1315 38.0074 61.2096 33.6014H68.0679Z" fill="#7C3AED"/>
<path d="M90 0.00479889C80.7112 0.00479889 73.1551 7.54005 73.1551 16.8031C73.1551 26.0662 80.7112 33.6014 90 33.6014C99.2888 33.6014 106.845 26.0662 106.845 16.8031C106.845 7.54005 99.2888 0.00479889 90 0.00479889ZM90 26.8821C84.4267 26.8821 79.8931 22.361 79.8931 16.8031C79.8931 11.2453 84.4267 6.72413 90 6.72413C95.5733 6.72413 100.107 11.2453 100.107 16.8031C100.107 22.361 95.5733 26.8821 90 26.8821Z" fill="#7C3AED"/>
<path d="M163.155 33.6014C153.866 33.6014 146.31 26.0662 146.31 16.8031C146.31 7.54005 153.866 0.00479889 163.155 0.00479889C172.444 0.00479889 180 7.54005 180 16.8031C180 26.0662 172.444 33.6014 163.155 33.6014ZM163.155 6.72413C157.582 6.72413 153.048 11.2453 153.048 16.8031C153.048 22.361 157.582 26.8821 163.155 26.8821C168.728 26.8821 173.262 22.361 173.262 16.8031C173.262 11.2453 168.728 6.72413 163.155 6.72413Z" fill="#7C3AED"/>
<path d="M65.9984 0L65.3054 4.89551C62.7353 2.33737 59.4241 0.676732 55.7663 0.167983C51.3096 -0.455954 46.877 0.686331 43.2866 3.38846C39.6915 6.09059 37.3717 10.0214 36.7412 14.4658C35.4465 23.6376 41.8813 32.1472 51.0786 33.4383C51.8727 33.5486 52.6572 33.6014 53.4321 33.6014C61.6909 33.6014 68.9198 27.5204 70.1038 19.1405L70.1326 18.9197L72.7989 0H65.9984ZM52.0123 26.7861C46.492 26.0134 42.6369 20.9067 43.4118 15.4017C44.1193 10.3718 48.4604 6.72413 53.4128 6.72413C53.8797 6.72413 54.3513 6.75772 54.8278 6.82492C57.4989 7.19928 59.8668 8.59114 61.4936 10.7413C63.1203 12.8915 63.8037 15.5456 63.4283 18.2094C62.6535 23.7144 57.5326 27.5636 52.0123 26.7861Z" fill="#7C3AED"/>
<path d="M141.228 33.6014C140.058 41.7318 133.027 48 124.556 48C116.086 48 109.054 41.7318 107.884 33.6014H114.743C115.821 38.0074 119.811 41.2807 124.556 41.2807C129.302 41.2807 133.291 38.0074 134.37 33.6014H141.228Z" fill="#7C3AED"/>
<path d="M139.158 0L138.465 4.89551C135.895 2.33737 132.584 0.676732 128.926 0.167983C124.47 -0.455954 120.037 0.686331 116.447 3.38846C112.851 6.09059 110.532 10.0214 109.901 14.4658C108.606 23.6376 115.041 32.1472 124.238 33.4383C125.033 33.5486 125.817 33.6014 126.592 33.6014C134.851 33.6014 142.08 27.5204 143.264 19.1405L143.293 18.9197L145.959 0H139.158ZM125.172 26.7861C119.652 26.0134 115.797 20.9067 116.572 15.4017C117.279 10.3718 121.62 6.72413 126.573 6.72413C127.04 6.72413 127.511 6.75772 127.988 6.82492C130.659 7.19928 133.027 8.59114 134.653 10.7413C136.28 12.8915 136.964 15.5456 136.588 18.2094C135.813 23.7144 130.692 27.5636 125.172 26.7861Z" fill="#7C3AED"/>
<circle cx="122" cy="16" r="2" fill="#7C3AED"/>
<ellipse cx="131" cy="16" rx="2" ry="1" fill="#7C3AED"/>
<circle cx="49" cy="16" r="2" fill="#7C3AED"/>
<ellipse cx="58" cy="16" rx="2" ry="1" fill="#7C3AED"/>
</g>
<defs>
<clipPath id="clip0_2130_11409">
<rect width="180" height="48" fill="white"/>
</clipPath>
</defs>
</svg>
