<svg width="40" height="40" viewBox="0 0 40 40" fill="none" xmlns="http://www.w3.org/2000/svg">
<g clip-path="url(#clip0_2130_14228)">
<path d="M31.7861 28.0012C30.8115 34.7765 24.9519 40 17.893 40C10.8342 40 4.9746 34.7765 4 28.0012H9.71524C10.6136 31.6728 13.9385 34.4006 17.893 34.4006C21.8476 34.4006 25.1725 31.6728 26.0709 28.0012H31.7861Z" fill="#7C3AED"/>
<path d="M30.0616 0L29.484 4.07959C27.3423 1.94781 24.583 0.563944 21.5348 0.139986C17.8209 -0.379962 14.1271 0.571943 11.1351 2.82372C8.13911 5.07549 6.20595 8.35116 5.68055 12.0548C4.60167 19.698 9.96397 26.7893 17.6284 27.8652C18.2902 27.9572 18.9439 28.0012 19.5896 28.0012C26.472 28.0012 32.4961 22.9337 33.4827 15.9504L33.5068 15.7664L35.7287 0H30.0616ZM18.4065 22.3218C13.8062 21.6778 10.5936 17.4223 11.2394 12.8347C11.8289 8.64314 15.4466 5.60344 19.5736 5.60344C19.9626 5.60344 20.3557 5.63144 20.7527 5.68743C22.9787 5.9994 24.9519 7.15928 26.3076 8.9511C27.6632 10.7429 28.2327 12.9547 27.9199 15.1745C27.2741 19.762 23.0068 22.9697 18.4065 22.3218Z" fill="#7C3AED"/>
<circle cx="15.8962" cy="13.3333" r="1.66667" fill="#7C3AED"/>
<ellipse cx="23.3962" cy="13.3333" rx="1.66667" ry="0.833333" fill="#7C3AED"/>
</g>
<defs>
<clipPath id="clip0_2130_14228">
<rect width="40" height="40" fill="white"/>
</clipPath>
</defs>
</svg>
