<svg width="25" height="25" viewBox="0 0 25 25" fill="none" xmlns="http://www.w3.org/2000/svg">
<path d="M15.7935 20.286V16.2881C15.7935 15.1886 14.894 14.2891 13.7945 14.2891H11.7955C10.6961 14.2891 9.79653 15.1886 9.79653 16.2881V20.286C9.79653 21.3855 8.89699 22.285 7.79754 22.285H5.79854C4.13938 22.285 2.80005 20.9457 2.80005 19.2865L2.80005 9.31155C2.80005 8.26208 3.34977 7.28257 4.25932 6.74284L11.2558 2.54495C12.2053 1.97524 13.3947 1.97524 14.3442 2.54495L21.3407 6.74284C22.2403 7.28257 22.8 8.26208 22.8 9.31155L22.8 19.2865C22.8 20.9457 21.4607 22.285 19.8015 22.285H17.8025C16.7031 22.285 15.8035 21.3855 15.8035 20.286H15.7935Z" stroke="#A5ABB8" stroke-width="1.5" stroke-linecap="round" stroke-linejoin="round"/>
</svg>
